<svg xmlns="http://www.w3.org/2000/svg" xmlns:xlink="http://www.w3.org/1999/xlink" width="500" zoomAndPan="magnify" viewBox="0 0 375 374.999991" height="500" preserveAspectRatio="xMidYMid meet" version="1.0"><defs><g/><clipPath id="643a818fa3"><path d="M 117 126.308594 L 160 126.308594 L 160 158 L 117 158 Z M 117 126.308594 " clip-rule="nonzero"/></clipPath><clipPath id="0ef156c365"><path d="M 100.214844 154 L 177 154 L 177 235.058594 L 100.214844 235.058594 Z M 100.214844 154 " clip-rule="nonzero"/></clipPath></defs><g clip-path="url(#643a818fa3)"><path fill="#000000" d="M 159.835938 157.355469 L 153.402344 157.355469 L 153.402344 147.308594 C 153.402344 139.269531 146.839844 132.746094 138.753906 132.746094 C 130.667969 132.746094 124.105469 139.269531 124.105469 147.308594 L 124.105469 157.355469 L 117.671875 157.355469 L 117.671875 147.308594 C 117.671875 135.753906 127.128906 126.347656 138.753906 126.347656 C 150.378906 126.347656 159.835938 135.753906 159.835938 147.308594 Z M 159.835938 157.355469 " fill-opacity="1" fill-rule="nonzero"/></g><g clip-path="url(#0ef156c365)"><path fill="#078fcd" d="M 109.304688 160.550781 L 168.242188 160.550781 L 170.128906 206.761719 L 141.96875 206.761719 L 141.96875 183.601562 L 150.957031 192.539062 L 155.503906 188.015625 L 138.753906 171.363281 L 122.003906 188.015625 L 126.550781 192.539062 L 135.535156 183.601562 L 135.535156 213.15625 L 176.84375 213.15625 L 174.417969 154.15625 L 103.042969 154.15625 L 100.707031 235.183594 L 140.425781 235.183594 L 140.425781 228.789062 L 107.332031 228.789062 Z M 109.304688 160.550781 " fill-opacity="1" fill-rule="nonzero"/></g><g fill="#000000" fill-opacity="1"><g transform="translate(149.601804, 231.026001)"><g><path d="M 7.640625 -13.40625 C 9.703125 -13.40625 11.414062 -12.765625 12.78125 -11.484375 C 14.15625 -10.203125 14.84375 -8.597656 14.84375 -6.671875 C 14.84375 -4.734375 14.15625 -3.109375 12.78125 -1.796875 C 11.40625 -0.492188 9.691406 0.15625 7.640625 0.15625 C 5.585938 0.15625 3.875 -0.492188 2.5 -1.796875 C 1.132812 -3.097656 0.453125 -4.722656 0.453125 -6.671875 C 0.453125 -8.609375 1.132812 -10.210938 2.5 -11.484375 C 3.875 -12.765625 5.585938 -13.40625 7.640625 -13.40625 Z M 7.671875 -10.578125 C 6.640625 -10.578125 5.753906 -10.203125 5.015625 -9.453125 C 4.273438 -8.703125 3.90625 -7.769531 3.90625 -6.65625 C 3.90625 -5.539062 4.273438 -4.597656 5.015625 -3.828125 C 5.765625 -3.054688 6.648438 -2.671875 7.671875 -2.671875 C 8.703125 -2.671875 9.570312 -3.054688 10.28125 -3.828125 C 11 -4.597656 11.359375 -5.539062 11.359375 -6.65625 C 11.359375 -7.769531 11 -8.703125 10.28125 -9.453125 C 9.570312 -10.203125 8.703125 -10.578125 7.671875 -10.578125 Z M 7.671875 -10.578125 "/></g></g></g><g fill="#000000" fill-opacity="1"><g transform="translate(164.894024, 231.026001)"><g><path d="M 13.609375 0 L 10.625 0 L 4.5 -8.1875 L 4.5 0 L 1.328125 0 L 1.328125 -13.296875 L 4.3125 -13.296875 L 10.453125 -5.09375 L 10.453125 -13.296875 L 13.609375 -13.296875 Z M 13.609375 0 "/></g></g></g><g fill="#000000" fill-opacity="1"><g transform="translate(179.825307, 231.026001)"><g><path d="M 4.71875 -2.828125 L 10.359375 -2.828125 L 10.359375 0 L 1.328125 0 L 1.328125 -13.296875 L 4.71875 -13.296875 Z M 4.71875 -2.828125 "/></g></g></g><g fill="#000000" fill-opacity="1"><g transform="translate(190.463375, 231.026001)"><g><path d="M 4.71875 0 L 1.328125 0 L 1.328125 -13.296875 L 4.71875 -13.296875 Z M 4.71875 0 "/></g></g></g><g fill="#000000" fill-opacity="1"><g transform="translate(196.504274, 231.026001)"><g><path d="M 13.609375 0 L 10.625 0 L 4.5 -8.1875 L 4.5 0 L 1.328125 0 L 1.328125 -13.296875 L 4.3125 -13.296875 L 10.453125 -5.09375 L 10.453125 -13.296875 L 13.609375 -13.296875 Z M 13.609375 0 "/></g></g></g><g fill="#000000" fill-opacity="1"><g transform="translate(211.435557, 231.026001)"><g><path d="M 11.734375 -10.640625 L 4.71875 -10.640625 L 4.71875 -8 L 11.0625 -8 L 11.0625 -5.34375 L 4.71875 -5.34375 L 4.71875 -2.65625 L 11.953125 -2.65625 L 11.953125 0 L 1.328125 0 L 1.328125 -13.296875 L 11.734375 -13.296875 Z M 11.734375 -10.640625 "/></g></g></g><g fill="#000000" fill-opacity="1"><g transform="translate(224.23923, 231.026001)"><g/></g></g><g fill="#000000" fill-opacity="1"><g transform="translate(228.64643, 231.026001)"><g><path d="M 6.4375 -13.453125 C 8.425781 -13.453125 10.175781 -12.957031 11.6875 -11.96875 L 10.40625 -9.328125 C 9.707031 -9.734375 8.957031 -10.066406 8.15625 -10.328125 C 7.363281 -10.585938 6.695312 -10.71875 6.15625 -10.71875 C 5.175781 -10.71875 4.6875 -10.394531 4.6875 -9.75 C 4.6875 -9.332031 4.925781 -8.992188 5.40625 -8.734375 C 5.894531 -8.484375 6.484375 -8.265625 7.171875 -8.078125 C 7.859375 -7.898438 8.546875 -7.679688 9.234375 -7.421875 C 9.929688 -7.160156 10.519531 -6.738281 11 -6.15625 C 11.476562 -5.570312 11.71875 -4.835938 11.71875 -3.953125 C 11.71875 -2.671875 11.21875 -1.671875 10.21875 -0.953125 C 9.21875 -0.242188 7.945312 0.109375 6.40625 0.109375 C 5.300781 0.109375 4.207031 -0.078125 3.125 -0.453125 C 2.050781 -0.835938 1.117188 -1.359375 0.328125 -2.015625 L 1.640625 -4.609375 C 2.304688 -4.035156 3.09375 -3.5625 4 -3.1875 C 4.914062 -2.8125 5.726562 -2.625 6.4375 -2.625 C 6.988281 -2.625 7.414062 -2.722656 7.71875 -2.921875 C 8.019531 -3.117188 8.171875 -3.40625 8.171875 -3.78125 C 8.171875 -4.144531 7.992188 -4.453125 7.640625 -4.703125 C 7.296875 -4.953125 6.863281 -5.132812 6.34375 -5.25 C 5.820312 -5.375 5.257812 -5.535156 4.65625 -5.734375 C 4.050781 -5.941406 3.488281 -6.164062 2.96875 -6.40625 C 2.445312 -6.644531 2.007812 -7.023438 1.65625 -7.546875 C 1.3125 -8.078125 1.140625 -8.707031 1.140625 -9.4375 C 1.140625 -10.65625 1.625 -11.628906 2.59375 -12.359375 C 3.5625 -13.085938 4.84375 -13.453125 6.4375 -13.453125 Z M 6.4375 -13.453125 "/></g></g></g><g fill="#000000" fill-opacity="1"><g transform="translate(240.880202, 231.026001)"><g><path d="M 11.5 -10.578125 L 7.484375 -10.578125 L 7.484375 0 L 4.109375 0 L 4.109375 -10.578125 L 0.140625 -10.578125 L 0.140625 -13.3125 L 11.5 -13.3125 Z M 11.5 -10.578125 "/></g></g></g><g fill="#000000" fill-opacity="1"><g transform="translate(252.487091, 231.026001)"><g><path d="M 7.640625 -13.40625 C 9.703125 -13.40625 11.414062 -12.765625 12.78125 -11.484375 C 14.15625 -10.203125 14.84375 -8.597656 14.84375 -6.671875 C 14.84375 -4.734375 14.15625 -3.109375 12.78125 -1.796875 C 11.40625 -0.492188 9.691406 0.15625 7.640625 0.15625 C 5.585938 0.15625 3.875 -0.492188 2.5 -1.796875 C 1.132812 -3.097656 0.453125 -4.722656 0.453125 -6.671875 C 0.453125 -8.609375 1.132812 -10.210938 2.5 -11.484375 C 3.875 -12.765625 5.585938 -13.40625 7.640625 -13.40625 Z M 7.671875 -10.578125 C 6.640625 -10.578125 5.753906 -10.203125 5.015625 -9.453125 C 4.273438 -8.703125 3.90625 -7.769531 3.90625 -6.65625 C 3.90625 -5.539062 4.273438 -4.597656 5.015625 -3.828125 C 5.765625 -3.054688 6.648438 -2.671875 7.671875 -2.671875 C 8.703125 -2.671875 9.570312 -3.054688 10.28125 -3.828125 C 11 -4.597656 11.359375 -5.539062 11.359375 -6.65625 C 11.359375 -7.769531 11 -8.703125 10.28125 -9.453125 C 9.570312 -10.203125 8.703125 -10.578125 7.671875 -10.578125 Z M 7.671875 -10.578125 "/></g></g></g><g fill="#000000" fill-opacity="1"><g transform="translate(267.779311, 231.026001)"><g><path d="M 9.34375 0 L 7.375 -3.75 L 4.71875 -3.75 L 4.71875 0 L 1.328125 0 L 1.328125 -13.296875 L 7.28125 -13.296875 C 9.039062 -13.296875 10.398438 -12.894531 11.359375 -12.09375 C 12.328125 -11.289062 12.8125 -10.144531 12.8125 -8.65625 C 12.8125 -6.613281 12.003906 -5.191406 10.390625 -4.390625 L 13.1875 0 Z M 4.71875 -6.40625 L 7.28125 -6.40625 C 8.007812 -6.40625 8.578125 -6.585938 8.984375 -6.953125 C 9.390625 -7.316406 9.59375 -7.847656 9.59375 -8.546875 C 9.59375 -9.234375 9.390625 -9.753906 8.984375 -10.109375 C 8.578125 -10.460938 8.007812 -10.640625 7.28125 -10.640625 L 4.71875 -10.640625 Z M 4.71875 -6.40625 "/></g></g></g><g fill="#000000" fill-opacity="1"><g transform="translate(281.53281, 231.026001)"><g><path d="M 11.734375 -10.640625 L 4.71875 -10.640625 L 4.71875 -8 L 11.0625 -8 L 11.0625 -5.34375 L 4.71875 -5.34375 L 4.71875 -2.65625 L 11.953125 -2.65625 L 11.953125 0 L 1.328125 0 L 1.328125 -13.296875 L 11.734375 -13.296875 Z M 11.734375 -10.640625 "/></g></g></g><g fill="#000000" fill-opacity="1"><g transform="translate(226.012542, 246.287397)"><g><path d="M 4.640625 -8.109375 C 5.203125 -8.109375 5.753906 -8 6.296875 -7.78125 C 6.835938 -7.5625 7.304688 -7.253906 7.703125 -6.859375 L 6.90625 -5.875 C 6.613281 -6.1875 6.265625 -6.429688 5.859375 -6.609375 C 5.460938 -6.796875 5.0625 -6.890625 4.65625 -6.890625 C 3.851562 -6.890625 3.171875 -6.613281 2.609375 -6.0625 C 2.054688 -5.519531 1.78125 -4.851562 1.78125 -4.0625 C 1.78125 -3.257812 2.054688 -2.582031 2.609375 -2.03125 C 3.171875 -1.476562 3.851562 -1.203125 4.65625 -1.203125 C 5.5 -1.203125 6.25 -1.523438 6.90625 -2.171875 L 7.71875 -1.265625 C 7.300781 -0.859375 6.816406 -0.535156 6.265625 -0.296875 C 5.710938 -0.0546875 5.15625 0.0625 4.59375 0.0625 C 3.40625 0.0625 2.40625 -0.332031 1.59375 -1.125 C 0.789062 -1.914062 0.390625 -2.890625 0.390625 -4.046875 C 0.390625 -5.191406 0.796875 -6.15625 1.609375 -6.9375 C 2.429688 -7.71875 3.441406 -8.109375 4.640625 -8.109375 Z M 4.640625 -8.109375 "/></g></g></g><g fill="#000000" fill-opacity="1"><g transform="translate(234.983209, 246.287397)"><g><path d="M 1.625 -6.9375 C 2.445312 -7.71875 3.460938 -8.109375 4.671875 -8.109375 C 5.878906 -8.109375 6.894531 -7.71875 7.71875 -6.9375 C 8.539062 -6.15625 8.953125 -5.1875 8.953125 -4.03125 C 8.953125 -2.882812 8.539062 -1.914062 7.71875 -1.125 C 6.894531 -0.332031 5.878906 0.0625 4.671875 0.0625 C 3.460938 0.0625 2.445312 -0.332031 1.625 -1.125 C 0.800781 -1.914062 0.390625 -2.882812 0.390625 -4.03125 C 0.390625 -5.1875 0.800781 -6.15625 1.625 -6.9375 Z M 4.6875 -6.890625 C 3.882812 -6.890625 3.195312 -6.613281 2.625 -6.0625 C 2.0625 -5.507812 1.78125 -4.832031 1.78125 -4.03125 C 1.78125 -3.238281 2.066406 -2.5625 2.640625 -2 C 3.210938 -1.445312 3.894531 -1.171875 4.6875 -1.171875 C 5.476562 -1.171875 6.148438 -1.445312 6.703125 -2 C 7.265625 -2.5625 7.546875 -3.238281 7.546875 -4.03125 C 7.546875 -4.832031 7.265625 -5.507812 6.703125 -6.0625 C 6.148438 -6.613281 5.476562 -6.890625 4.6875 -6.890625 Z M 4.6875 -6.890625 "/></g></g></g><g fill="#000000" fill-opacity="1"><g transform="translate(245.25675, 246.287397)"><g><path d="M 9.59375 0 L 8.34375 0 L 8.328125 -6.03125 L 5.78125 -0.84375 L 4.890625 -0.84375 L 2.34375 -6.03125 L 2.34375 0 L 1.0625 0 L 1.0625 -8.078125 L 2.671875 -8.078125 L 5.34375 -2.703125 L 7.984375 -8.078125 L 9.59375 -8.078125 Z M 9.59375 0 "/></g></g></g><g fill="#000000" fill-opacity="1"><g transform="translate(256.856229, 246.287397)"><g><path d="M 1.0625 -8.078125 L 4.28125 -8.078125 C 5.289062 -8.078125 6.070312 -7.832031 6.625 -7.34375 C 7.1875 -6.863281 7.46875 -6.1875 7.46875 -5.3125 C 7.46875 -4.394531 7.1875 -3.6875 6.625 -3.1875 C 6.070312 -2.6875 5.289062 -2.4375 4.28125 -2.4375 L 2.421875 -2.4375 L 2.421875 0 L 1.0625 0 Z M 2.421875 -6.84375 L 2.421875 -3.65625 L 4.21875 -3.65625 C 5.519531 -3.65625 6.171875 -4.195312 6.171875 -5.28125 C 6.171875 -6.320312 5.519531 -6.84375 4.21875 -6.84375 Z M 2.421875 -6.84375 "/></g></g></g><g fill="#000000" fill-opacity="1"><g transform="translate(265.55018, 246.287397)"><g><path d="M 6.265625 -1.828125 L 2.203125 -1.828125 L 1.4375 0 L 0.015625 0 L 3.578125 -8.078125 L 4.96875 -8.078125 L 8.5 0 L 7.046875 0 Z M 5.75 -3.03125 L 4.234375 -6.625 L 2.703125 -3.03125 Z M 5.75 -3.03125 "/></g></g></g><g fill="#000000" fill-opacity="1"><g transform="translate(274.993576, 246.287397)"><g><path d="M 8.0625 0 L 6.71875 0 L 2.421875 -5.78125 L 2.421875 0 L 1.0625 0 L 1.0625 -8.078125 L 2.40625 -8.078125 L 6.71875 -2.265625 L 6.71875 -8.078125 L 8.0625 -8.078125 Z M 8.0625 0 "/></g></g></g><g fill="#000000" fill-opacity="1"><g transform="translate(285.059585, 246.287397)"><g><path d="M 4.375 -2.6875 L 4.375 0 L 3.015625 0 L 3.015625 -2.640625 L 0.015625 -8.078125 L 1.390625 -8.078125 L 3.6875 -4.140625 L 5.953125 -8.078125 L 7.328125 -8.078125 Z M 4.375 -2.6875 "/></g></g></g></svg>