<svg xmlns="http://www.w3.org/2000/svg" xmlns:xlink="http://www.w3.org/1999/xlink" width="100" zoomAndPan="magnify" viewBox="0 0 375 374.999991" height="100" preserveAspectRatio="xMidYMid meet" version="1.0"><defs><g/><clipPath id="318900fcff"><path d="M 101.871094 74.191406 L 273.128906 74.191406 L 273.128906 245.449219 L 101.871094 245.449219 Z M 101.871094 74.191406 " clip-rule="nonzero"/></clipPath><clipPath id="e9b4fe23a8"><path d="M 187.5 74.191406 C 140.207031 74.191406 101.871094 112.53125 101.871094 159.820312 C 101.871094 207.113281 140.207031 245.449219 187.5 245.449219 C 234.792969 245.449219 273.128906 207.113281 273.128906 159.820312 C 273.128906 112.53125 234.792969 74.191406 187.5 74.191406 Z M 187.5 74.191406 " clip-rule="nonzero"/></clipPath><clipPath id="e906213059"><path d="M 128.78125 124.011719 L 230.78125 124.011719 L 230.78125 196 L 128.78125 196 Z M 128.78125 124.011719 " clip-rule="nonzero"/></clipPath><clipPath id="646f8e2d62"><path d="M 149 197 L 165 197 L 165 212.511719 L 149 212.511719 Z M 149 197 " clip-rule="nonzero"/></clipPath><clipPath id="14fd67e6b9"><path d="M 207 197 L 223 197 L 223 212.511719 L 207 212.511719 Z M 207 197 " clip-rule="nonzero"/></clipPath></defs><g clip-path="url(#318900fcff)"><g clip-path="url(#e9b4fe23a8)"><path fill="#38b6ff" d="M 101.871094 74.191406 L 273.128906 74.191406 L 273.128906 245.449219 L 101.871094 245.449219 Z M 101.871094 74.191406 " fill-opacity="1" fill-rule="nonzero"/></g></g><g clip-path="url(#e906213059)"><path fill="#ffffff" d="M 230.898438 138.058594 C 230.636719 136.804688 229.511719 135.785156 228.214844 135.769531 C 202.796875 135.757812 177.378906 135.765625 151.960938 135.773438 C 151.445312 135.773438 151.515625 135.769531 151.375 135.347656 C 150.945312 133.878906 150.492188 132.414062 150.0625 130.941406 C 148.976562 127.070312 145.421875 124.09375 141.347656 124.046875 C 140.132812 124.011719 138.914062 124.011719 137.699219 124.011719 C 135.882812 124.011719 134.066406 124.019531 132.25 124.011719 C 131.6875 124.011719 131.160156 124.128906 130.652344 124.363281 C 127.816406 125.714844 128.390625 129.902344 131.527344 130.46875 C 134.933594 130.65625 138.363281 130.46875 141.777344 130.53125 C 143.097656 130.546875 144.085938 131.417969 144.351562 132.6875 C 145.1875 135.464844 146.015625 138.238281 146.847656 141.015625 C 149.277344 149.121094 151.664062 157.238281 154.089844 165.34375 C 155.082031 168.59375 156.035156 171.855469 157.035156 175.101562 C 157.390625 176.25 157.945312 177.28125 158.707031 178.203125 C 158.941406 178.488281 159.171875 178.769531 159.40625 179.054688 C 159.4375 179.09375 159.429688 179.160156 159.394531 179.1875 C 155.140625 182.175781 151.925781 186.59375 150.226562 191.496094 C 149.847656 192.484375 149.761719 193.382812 150.34375 194.324219 C 150.910156 195.242188 151.722656 195.746094 152.8125 195.769531 C 164.832031 195.789062 176.847656 195.777344 188.867188 195.78125 C 200.648438 195.78125 212.433594 195.777344 224.21875 195.773438 C 225.089844 195.808594 225.980469 195.726562 226.671875 195.128906 C 228.847656 193.34375 227.25 190.113281 224.773438 190.089844 C 211.820312 190.042969 198.871094 190.085938 185.917969 190.074219 C 176.519531 190.0625 167.117188 190.082031 157.71875 190.082031 C 157.527344 190.054688 157.648438 189.847656 157.714844 189.726562 C 159.285156 186.476562 161.859375 183.71875 165.140625 182.171875 C 180.472656 182.179688 195.941406 182.210938 211.320312 182.175781 C 214.167969 182.132812 216.976562 180.753906 218.738281 178.511719 C 220.371094 176.492188 220.703125 173.839844 221.480469 171.433594 C 223.042969 165.992188 224.660156 160.5625 226.226562 155.121094 C 227.398438 150.953125 228.644531 146.804688 229.847656 142.644531 C 230.101562 141.78125 230.351562 140.917969 230.605469 140.054688 C 230.785156 139.402344 231.082031 138.742188 230.898438 138.058594 Z M 197.339844 153.640625 C 197.515625 150.011719 197.714844 146.382812 197.882812 142.753906 C 197.910156 142.269531 197.929688 142.289062 198.378906 142.289062 C 202.714844 142.316406 207.046875 142.269531 211.378906 142.300781 C 211.496094 142.304688 211.5625 142.363281 211.542969 142.496094 C 211.207031 144.601562 210.816406 146.699219 210.429688 148.796875 C 210.136719 150.4375 209.820312 152.074219 209.546875 153.714844 C 209.519531 153.878906 209.449219 153.933594 209.273438 153.929688 C 207.320312 153.890625 205.371094 153.921875 203.421875 153.914062 C 203.421875 153.90625 203.421875 153.902344 203.421875 153.898438 C 201.4375 153.902344 199.453125 153.953125 197.472656 153.925781 C 197.351562 153.898438 197.328125 153.746094 197.339844 153.640625 Z M 156.847656 153.792969 C 155.726562 150.132812 154.683594 146.453125 153.617188 142.777344 C 153.609375 142.652344 153.414062 142.328125 153.605469 142.289062 C 154.855469 142.277344 156.101562 142.289062 157.351562 142.285156 C 157.351562 142.285156 157.351562 142.289062 157.351562 142.289062 C 158.5 142.289062 159.648438 142.289062 160.796875 142.289062 C 161.273438 142.289062 161.261719 142.300781 161.332031 142.75 C 161.554688 144.09375 161.757812 145.445312 161.972656 146.792969 C 162.339844 149.074219 162.707031 151.359375 163.054688 153.644531 C 163.085938 153.890625 163.003906 153.933594 162.78125 153.925781 C 160.867188 153.929688 158.953125 153.898438 157.039062 153.925781 C 156.953125 153.925781 156.878906 153.882812 156.847656 153.792969 Z M 160.363281 165.089844 C 160.253906 165.085938 160.171875 165.046875 160.132812 164.9375 C 160.054688 164.714844 159.96875 164.5 159.902344 164.277344 C 159.253906 162.039062 158.574219 159.808594 157.945312 157.566406 C 157.929688 157.484375 157.992188 157.40625 158.085938 157.402344 C 158.984375 157.382812 159.882812 157.398438 160.785156 157.394531 C 161.683594 157.402344 162.582031 157.375 163.480469 157.40625 C 163.742188 157.425781 163.675781 158 163.742188 158.207031 C 164.082031 160.394531 164.417969 162.582031 164.742188 164.769531 C 164.75 164.871094 164.789062 165.042969 164.65625 165.070312 C 163.230469 165.128906 161.792969 165.078125 160.363281 165.089844 Z M 166.351562 176.5 C 162.308594 175.582031 162.371094 172.234375 161.3125 168.9375 C 161.300781 168.855469 161.238281 168.722656 161.339844 168.675781 C 161.980469 168.609375 162.636719 168.667969 163.28125 168.648438 C 163.910156 168.652344 164.546875 168.640625 165.175781 168.660156 C 165.261719 168.664062 165.335938 168.726562 165.355469 168.808594 C 165.605469 170.078125 165.800781 171.363281 165.988281 172.644531 C 166.160156 173.796875 166.382812 174.9375 166.546875 176.089844 C 166.5625 176.265625 166.640625 176.59375 166.351562 176.5 Z M 166.476562 153.578125 C 165.945312 149.855469 165.304688 146.144531 164.808594 142.417969 C 164.863281 142.230469 165.09375 142.3125 165.242188 142.292969 C 167.273438 142.292969 169.304688 142.300781 171.335938 142.296875 C 171.335938 142.292969 171.335938 142.292969 171.335938 142.289062 C 173.46875 142.300781 175.601562 142.265625 177.734375 142.304688 C 177.867188 142.316406 177.886719 142.46875 177.890625 142.578125 C 177.917969 142.992188 177.945312 143.410156 177.964844 143.824219 C 178.125 147.054688 178.238281 150.28125 178.367188 153.507812 C 178.347656 153.632812 178.414062 153.867188 178.257812 153.90625 C 174.398438 153.945312 170.527344 153.9375 166.667969 153.894531 C 166.519531 153.878906 166.5 153.699219 166.476562 153.578125 Z M 168.253906 164.917969 C 168.011719 163.605469 167.839844 162.285156 167.632812 160.96875 C 167.480469 159.980469 167.320312 158.996094 167.183594 158.003906 C 167.085938 157.324219 166.980469 157.386719 167.699219 157.386719 C 169.398438 157.386719 171.097656 157.386719 172.800781 157.386719 C 172.800781 157.390625 172.800781 157.394531 172.800781 157.398438 C 174.652344 157.40625 176.5 157.375 178.351562 157.414062 C 178.507812 157.441406 178.5 157.617188 178.507812 157.738281 C 178.527344 158.1875 178.550781 158.636719 178.570312 159.085938 C 178.652344 160.96875 178.746094 162.851562 178.792969 164.734375 C 178.800781 164.875 178.792969 165.078125 178.609375 165.078125 C 175.328125 165.101562 172.042969 165.082031 168.761719 165.089844 C 168.585938 165.078125 168.289062 165.160156 168.253906 164.917969 Z M 179.222656 176.582031 C 176.230469 176.648438 173.226562 176.597656 170.234375 176.609375 C 169.972656 176.574219 170.035156 176.214844 169.96875 176.019531 C 169.703125 174.34375 169.4375 172.667969 169.175781 170.988281 C 169.070312 170.296875 168.96875 169.605469 168.867188 168.914062 C 168.847656 168.824219 168.855469 168.683594 168.964844 168.675781 C 170.613281 168.625 172.265625 168.671875 173.914062 168.65625 C 173.914062 168.652344 173.914062 168.648438 173.914062 168.640625 C 175.410156 168.640625 176.910156 168.640625 178.410156 168.640625 C 179.035156 168.640625 178.972656 168.609375 179.003906 169.199219 C 179.023438 169.648438 179.042969 170.101562 179.0625 170.550781 C 179.128906 171.945312 179.21875 173.34375 179.261719 174.742188 C 179.226562 174.996094 179.46875 176.605469 179.222656 176.582031 Z M 192.925781 170.191406 C 192.84375 172.273438 192.707031 174.347656 192.640625 176.429688 C 192.636719 176.609375 192.433594 176.613281 192.289062 176.609375 C 189.476562 176.613281 186.664062 176.613281 183.847656 176.613281 C 183.597656 176.613281 183.347656 176.613281 183.097656 176.613281 C 182.746094 176.609375 182.742188 176.605469 182.726562 176.246094 C 182.695312 175.582031 182.671875 174.917969 182.644531 174.25 C 182.566406 172.453125 182.46875 170.660156 182.449219 168.859375 C 182.445312 168.710938 182.503906 168.65625 182.660156 168.652344 C 184.34375 168.644531 186.023438 168.652344 187.707031 168.648438 C 187.707031 168.652344 187.707031 168.65625 187.707031 168.664062 C 189.402344 168.660156 191.101562 168.628906 192.800781 168.644531 C 192.90625 168.648438 192.976562 168.726562 192.972656 168.84375 C 192.957031 169.292969 192.941406 169.742188 192.925781 170.191406 Z M 193.632812 157.636719 C 193.519531 159.679688 193.449219 161.730469 193.304688 163.773438 C 193.285156 164.089844 193.28125 164.40625 193.265625 164.722656 C 193.273438 164.976562 193.214844 165.105469 192.945312 165.085938 C 189.429688 165.082031 185.914062 165.105469 182.398438 165.082031 C 182.316406 165.078125 182.25 165.011719 182.246094 164.921875 C 182.105469 162.726562 182.070312 160.527344 181.984375 158.332031 C 181.976562 158.066406 181.972656 157.796875 181.972656 157.53125 C 181.972656 157.472656 182.039062 157.402344 182.097656 157.402344 C 183.996094 157.375 185.894531 157.398438 187.792969 157.390625 C 189.675781 157.398438 191.558594 157.378906 193.441406 157.398438 C 193.578125 157.40625 193.640625 157.488281 193.632812 157.636719 Z M 194.417969 142.710938 C 194.398438 143.195312 194.394531 143.679688 194.375 144.160156 C 194.242188 147.371094 194.089844 150.589844 193.863281 153.792969 C 193.796875 153.929688 193.644531 153.914062 193.515625 153.917969 C 190.117188 153.90625 186.71875 153.917969 183.316406 153.914062 C 182.933594 153.914062 182.550781 153.910156 182.167969 153.90625 C 182.035156 153.898438 181.824219 153.929688 181.789062 153.761719 C 181.714844 152.53125 181.710938 151.292969 181.632812 150.066406 C 181.527344 147.519531 181.382812 144.972656 181.363281 142.421875 C 181.367188 142.363281 181.4375 142.300781 181.5 142.300781 C 183.628906 142.265625 185.765625 142.292969 187.898438 142.285156 C 189.929688 142.289062 191.964844 142.28125 193.996094 142.289062 C 194.410156 142.300781 194.429688 142.324219 194.417969 142.710938 Z M 206.746094 168.820312 C 206.316406 171.265625 205.890625 173.707031 205.457031 176.152344 C 205.414062 176.292969 205.421875 176.515625 205.261719 176.582031 C 202.351562 176.636719 199.429688 176.589844 196.515625 176.605469 C 196.042969 176.605469 196.035156 176.601562 196.050781 176.144531 C 196.117188 174.679688 196.199219 173.214844 196.273438 171.75 C 196.339844 170.753906 196.367188 169.75 196.464844 168.757812 C 196.480469 168.722656 196.53125 168.671875 196.570312 168.667969 C 198.25 168.621094 199.933594 168.664062 201.617188 168.652344 C 201.617188 168.65625 201.617188 168.660156 201.617188 168.667969 C 203.300781 168.671875 204.984375 168.597656 206.664062 168.660156 C 206.71875 168.675781 206.761719 168.765625 206.746094 168.820312 Z M 208.761719 157.75 C 208.484375 159.445312 208.164062 161.128906 207.863281 162.816406 C 207.722656 163.535156 207.628906 164.265625 207.453125 164.972656 C 207.441406 165.011719 207.386719 165.058594 207.347656 165.0625 C 205.601562 165.117188 203.851562 165.066406 202.101562 165.082031 C 202.101562 165.085938 202.101562 165.089844 202.101562 165.09375 C 200.371094 165.089844 198.636719 165.097656 196.902344 165.089844 C 196.765625 165.085938 196.703125 165.015625 196.703125 164.863281 C 196.753906 163.617188 196.828125 162.371094 196.886719 161.121094 C 196.945312 159.957031 197 158.792969 197.0625 157.628906 C 197.070312 157.453125 197.128906 157.402344 197.316406 157.398438 C 201.109375 157.425781 204.917969 157.335938 208.703125 157.4375 C 208.808594 157.492188 208.765625 157.652344 208.761719 157.75 Z M 216.152344 168.851562 C 215.722656 170.371094 215.289062 171.890625 214.863281 173.410156 C 214.28125 175.546875 212.167969 176.773438 210.023438 176.589844 C 210.023438 176.59375 210.023438 176.601562 210.023438 176.605469 C 209.816406 176.570312 209.039062 176.699219 208.976562 176.496094 C 209.246094 174.34375 209.710938 172.199219 210.054688 170.054688 C 210.128906 169.644531 210.203125 169.234375 210.277344 168.828125 C 210.296875 168.722656 210.375 168.652344 210.484375 168.644531 C 212.328125 168.644531 214.175781 168.597656 216.023438 168.640625 C 216.140625 168.648438 216.1875 168.726562 216.152344 168.851562 Z M 219.394531 157.71875 C 218.707031 160.101562 218.042969 162.488281 217.363281 164.871094 C 217.316406 165.039062 217.257812 165.082031 217.078125 165.089844 C 215.164062 165.09375 213.253906 165.09375 211.335938 165.09375 C 211.238281 165.082031 211.070312 165.121094 211.027344 165.003906 C 211.058594 164.410156 211.210938 163.820312 211.296875 163.230469 C 211.554688 161.742188 211.824219 160.25 212.097656 158.761719 C 212.183594 158.507812 212.226562 157.449219 212.472656 157.410156 C 213.617188 157.359375 214.769531 157.402344 215.914062 157.390625 C 215.914062 157.390625 215.914062 157.390625 215.914062 157.394531 C 216.996094 157.394531 218.078125 157.390625 219.160156 157.398438 C 219.414062 157.398438 219.476562 157.441406 219.394531 157.71875 Z M 223.734375 142.578125 C 222.71875 146.304688 221.621094 150.003906 220.566406 153.71875 C 220.527344 153.855469 220.453125 153.90625 220.3125 153.910156 C 217.914062 153.902344 215.515625 153.933594 213.121094 153.886719 C 213.085938 153.882812 213.03125 153.816406 213.039062 153.777344 C 213.472656 151.285156 213.925781 148.796875 214.398438 146.3125 C 214.628906 145.050781 214.855469 143.792969 215.082031 142.53125 C 215.117188 142.359375 215.179688 142.292969 215.347656 142.289062 C 216.710938 142.28125 218.078125 142.289062 219.441406 142.285156 C 219.441406 142.285156 219.441406 142.28125 219.441406 142.28125 C 220.808594 142.285156 222.171875 142.273438 223.539062 142.285156 C 223.746094 142.292969 223.789062 142.359375 223.734375 142.578125 Z M 223.734375 142.578125 " fill-opacity="1" fill-rule="nonzero"/></g><g clip-path="url(#646f8e2d62)"><path fill="#ffffff" d="M 158.71875 197.625 C 155.128906 196.523438 151.066406 198.488281 149.632812 201.941406 C 147.488281 206.613281 151.414062 212.316406 156.480469 212.195312 C 165.238281 212.269531 167.121094 200.199219 158.71875 197.625 Z M 157.257812 207.902344 C 152.59375 208.550781 151.96875 201.671875 156.796875 201.652344 C 160.542969 201.738281 160.929688 207.183594 157.257812 207.902344 Z M 157.257812 207.902344 " fill-opacity="1" fill-rule="nonzero"/></g><g clip-path="url(#14fd67e6b9)"><path fill="#ffffff" d="M 212.121094 197.765625 C 204.222656 200.800781 206.210938 212.113281 214.695312 212.1875 C 218.734375 212.28125 222.246094 208.785156 222.214844 204.742188 C 222.300781 199.671875 216.8125 195.984375 212.121094 197.765625 Z M 215.589844 207.847656 C 210.882812 208.886719 209.832031 201.816406 214.761719 201.652344 C 218.425781 201.621094 219.078125 206.871094 215.589844 207.847656 Z M 215.589844 207.847656 " fill-opacity="1" fill-rule="nonzero"/></g><g fill="#38b6ff" fill-opacity="0.4"><g transform="translate(85.586352, 276.133751)"><g><path d="M 15.375 0.671875 C 13.488281 0.671875 11.78125 0.367188 10.25 -0.234375 C 8.726562 -0.835938 7.4375 -1.660156 6.375 -2.703125 C 5.3125 -3.742188 4.492188 -4.953125 3.921875 -6.328125 C 3.347656 -7.710938 3.0625 -9.179688 3.0625 -10.734375 C 3.0625 -12.546875 3.425781 -14.269531 4.15625 -15.90625 C 4.882812 -17.550781 5.878906 -18.988281 7.140625 -20.21875 C 8.410156 -21.445312 9.894531 -22.421875 11.59375 -23.140625 C 13.300781 -23.859375 15.132812 -24.21875 17.09375 -24.21875 C 18.976562 -24.21875 20.679688 -23.914062 22.203125 -23.3125 C 23.722656 -22.707031 25.015625 -21.882812 26.078125 -20.84375 C 27.148438 -19.800781 27.972656 -18.585938 28.546875 -17.203125 C 29.117188 -15.828125 29.40625 -14.363281 29.40625 -12.8125 C 29.40625 -11 29.039062 -9.273438 28.3125 -7.640625 C 27.582031 -6.003906 26.582031 -4.566406 25.3125 -3.328125 C 24.039062 -2.097656 22.550781 -1.125 20.84375 -0.40625 C 19.144531 0.3125 17.320312 0.671875 15.375 0.671875 Z M 15.75 -5.046875 C 16.707031 -5.046875 17.613281 -5.222656 18.46875 -5.578125 C 19.320312 -5.941406 20.070312 -6.457031 20.71875 -7.125 C 21.375 -7.800781 21.890625 -8.609375 22.265625 -9.546875 C 22.648438 -10.492188 22.84375 -11.539062 22.84375 -12.6875 C 22.84375 -13.53125 22.695312 -14.3125 22.40625 -15.03125 C 22.113281 -15.75 21.703125 -16.363281 21.171875 -16.875 C 20.648438 -17.394531 20.007812 -17.796875 19.25 -18.078125 C 18.5 -18.359375 17.65625 -18.5 16.71875 -18.5 C 15.75 -18.5 14.835938 -18.316406 13.984375 -17.953125 C 13.140625 -17.597656 12.390625 -17.082031 11.734375 -16.40625 C 11.085938 -15.738281 10.570312 -14.929688 10.1875 -13.984375 C 9.8125 -13.046875 9.625 -12.003906 9.625 -10.859375 C 9.625 -10.015625 9.769531 -9.234375 10.0625 -8.515625 C 10.351562 -7.796875 10.757812 -7.175781 11.28125 -6.65625 C 11.8125 -6.144531 12.453125 -5.75 13.203125 -5.46875 C 13.953125 -5.1875 14.800781 -5.046875 15.75 -5.046875 Z M 15.75 -5.046875 "/></g></g></g><g fill="#38b6ff" fill-opacity="0.4"><g transform="translate(114.18422, 276.133751)"><g><path d="M 4.78125 -17.5 L 10.5 -17.5 L 10.125 -15.3125 L 10.390625 -15.3125 C 10.796875 -15.800781 11.257812 -16.25 11.78125 -16.65625 C 12.226562 -16.988281 12.765625 -17.296875 13.390625 -17.578125 C 14.015625 -17.859375 14.734375 -18 15.546875 -18 C 16.710938 -18 17.703125 -17.800781 18.515625 -17.40625 C 19.335938 -17.007812 19.988281 -16.457031 20.46875 -15.75 C 20.945312 -15.050781 21.257812 -14.222656 21.40625 -13.265625 C 21.550781 -12.316406 21.523438 -11.289062 21.328125 -10.1875 L 19.515625 0 L 13.796875 0 L 15.546875 -9.859375 C 15.703125 -10.847656 15.5625 -11.675781 15.125 -12.34375 C 14.6875 -13.019531 13.90625 -13.359375 12.78125 -13.359375 C 11.925781 -13.359375 11.140625 -13.03125 10.421875 -12.375 C 9.710938 -11.726562 9.265625 -10.851562 9.078125 -9.75 L 7.40625 0 L 1.6875 0 Z M 4.78125 -17.5 "/></g></g></g><g fill="#38b6ff" fill-opacity="0.4"><g transform="translate(135.212062, 276.133751)"><g><path d="M 5.8125 -23.546875 L 11.53125 -23.546875 L 8.203125 -4.546875 L 12.078125 -4.546875 L 11.265625 0 L 1.6875 0 Z M 5.8125 -23.546875 "/></g></g></g><g fill="#38b6ff" fill-opacity="0.4"><g transform="translate(146.819437, 276.133751)"><g><path d="M 4.78125 -17.5 L 10.5 -17.5 L 7.40625 0 L 1.6875 0 Z M 8.34375 -19.34375 C 7.40625 -19.34375 6.679688 -19.578125 6.171875 -20.046875 C 5.671875 -20.515625 5.421875 -21.117188 5.421875 -21.859375 C 5.421875 -22.804688 5.71875 -23.578125 6.3125 -24.171875 C 6.90625 -24.765625 7.660156 -25.0625 8.578125 -25.0625 C 9.515625 -25.0625 10.234375 -24.828125 10.734375 -24.359375 C 11.242188 -23.890625 11.5 -23.285156 11.5 -22.546875 C 11.5 -21.597656 11.203125 -20.828125 10.609375 -20.234375 C 10.015625 -19.640625 9.257812 -19.34375 8.34375 -19.34375 Z M 8.34375 -19.34375 "/></g></g></g><g fill="#38b6ff" fill-opacity="0.4"><g transform="translate(155.903471, 276.133751)"><g><path d="M 4.78125 -17.5 L 10.5 -17.5 L 10.125 -15.3125 L 10.390625 -15.3125 C 10.796875 -15.800781 11.257812 -16.25 11.78125 -16.65625 C 12.226562 -16.988281 12.765625 -17.296875 13.390625 -17.578125 C 14.015625 -17.859375 14.734375 -18 15.546875 -18 C 16.710938 -18 17.703125 -17.800781 18.515625 -17.40625 C 19.335938 -17.007812 19.988281 -16.457031 20.46875 -15.75 C 20.945312 -15.050781 21.257812 -14.222656 21.40625 -13.265625 C 21.550781 -12.316406 21.523438 -11.289062 21.328125 -10.1875 L 19.515625 0 L 13.796875 0 L 15.546875 -9.859375 C 15.703125 -10.847656 15.5625 -11.675781 15.125 -12.34375 C 14.6875 -13.019531 13.90625 -13.359375 12.78125 -13.359375 C 11.925781 -13.359375 11.140625 -13.03125 10.421875 -12.375 C 9.710938 -11.726562 9.265625 -10.851562 9.078125 -9.75 L 7.40625 0 L 1.6875 0 Z M 4.78125 -17.5 "/></g></g></g><g fill="#38b6ff" fill-opacity="0.4"><g transform="translate(176.931313, 276.133751)"><g><path d="M 11.5 0.5 C 10.175781 0.5 8.953125 0.296875 7.828125 -0.109375 C 6.710938 -0.523438 5.75 -1.113281 4.9375 -1.875 C 4.132812 -2.644531 3.503906 -3.546875 3.046875 -4.578125 C 2.585938 -5.609375 2.359375 -6.75 2.359375 -8 C 2.359375 -9.375 2.632812 -10.664062 3.1875 -11.875 C 3.75 -13.082031 4.5 -14.140625 5.4375 -15.046875 C 6.382812 -15.960938 7.476562 -16.679688 8.71875 -17.203125 C 9.96875 -17.734375 11.289062 -18 12.6875 -18 C 14.03125 -18 15.25 -17.773438 16.34375 -17.328125 C 17.445312 -16.878906 18.382812 -16.265625 19.15625 -15.484375 C 19.925781 -14.710938 20.519531 -13.8125 20.9375 -12.78125 C 21.351562 -11.75 21.5625 -10.660156 21.5625 -9.515625 C 21.5625 -9.273438 21.546875 -9 21.515625 -8.6875 C 21.484375 -8.382812 21.441406 -8.066406 21.390625 -7.734375 L 8.109375 -7.734375 C 8.148438 -6.546875 8.46875 -5.628906 9.0625 -4.984375 C 9.65625 -4.347656 10.503906 -4.03125 11.609375 -4.03125 C 12.210938 -4.03125 12.722656 -4.117188 13.140625 -4.296875 C 13.554688 -4.484375 13.894531 -4.695312 14.15625 -4.9375 C 14.476562 -5.207031 14.738281 -5.523438 14.9375 -5.890625 L 21.09375 -5.890625 C 20.601562 -4.679688 19.921875 -3.613281 19.046875 -2.6875 C 18.660156 -2.28125 18.222656 -1.882812 17.734375 -1.5 C 17.253906 -1.125 16.707031 -0.785156 16.09375 -0.484375 C 15.476562 -0.179688 14.789062 0.0546875 14.03125 0.234375 C 13.269531 0.410156 12.425781 0.5 11.5 0.5 Z M 15.75 -10.59375 C 15.71875 -10.957031 15.617188 -11.3125 15.453125 -11.65625 C 15.285156 -12 15.0625 -12.304688 14.78125 -12.578125 C 14.5 -12.847656 14.171875 -13.0625 13.796875 -13.21875 C 13.429688 -13.375 13.035156 -13.453125 12.609375 -13.453125 C 11.671875 -13.453125 10.859375 -13.210938 10.171875 -12.734375 C 9.492188 -12.253906 8.984375 -11.539062 8.640625 -10.59375 Z M 15.75 -10.59375 "/></g></g></g><g fill="#38b6ff" fill-opacity="1"><g transform="translate(85.586352, 276.133751)"><g><path d="M 15.375 0.671875 C 13.488281 0.671875 11.78125 0.367188 10.25 -0.234375 C 8.726562 -0.835938 7.4375 -1.660156 6.375 -2.703125 C 5.3125 -3.742188 4.492188 -4.953125 3.921875 -6.328125 C 3.347656 -7.710938 3.0625 -9.179688 3.0625 -10.734375 C 3.0625 -12.546875 3.425781 -14.269531 4.15625 -15.90625 C 4.882812 -17.550781 5.878906 -18.988281 7.140625 -20.21875 C 8.410156 -21.445312 9.894531 -22.421875 11.59375 -23.140625 C 13.300781 -23.859375 15.132812 -24.21875 17.09375 -24.21875 C 18.976562 -24.21875 20.679688 -23.914062 22.203125 -23.3125 C 23.722656 -22.707031 25.015625 -21.882812 26.078125 -20.84375 C 27.148438 -19.800781 27.972656 -18.585938 28.546875 -17.203125 C 29.117188 -15.828125 29.40625 -14.363281 29.40625 -12.8125 C 29.40625 -11 29.039062 -9.273438 28.3125 -7.640625 C 27.582031 -6.003906 26.582031 -4.566406 25.3125 -3.328125 C 24.039062 -2.097656 22.550781 -1.125 20.84375 -0.40625 C 19.144531 0.3125 17.320312 0.671875 15.375 0.671875 Z M 15.75 -5.046875 C 16.707031 -5.046875 17.613281 -5.222656 18.46875 -5.578125 C 19.320312 -5.941406 20.070312 -6.457031 20.71875 -7.125 C 21.375 -7.800781 21.890625 -8.609375 22.265625 -9.546875 C 22.648438 -10.492188 22.84375 -11.539062 22.84375 -12.6875 C 22.84375 -13.53125 22.695312 -14.3125 22.40625 -15.03125 C 22.113281 -15.75 21.703125 -16.363281 21.171875 -16.875 C 20.648438 -17.394531 20.007812 -17.796875 19.25 -18.078125 C 18.5 -18.359375 17.65625 -18.5 16.71875 -18.5 C 15.75 -18.5 14.835938 -18.316406 13.984375 -17.953125 C 13.140625 -17.597656 12.390625 -17.082031 11.734375 -16.40625 C 11.085938 -15.738281 10.570312 -14.929688 10.1875 -13.984375 C 9.8125 -13.046875 9.625 -12.003906 9.625 -10.859375 C 9.625 -10.015625 9.769531 -9.234375 10.0625 -8.515625 C 10.351562 -7.796875 10.757812 -7.175781 11.28125 -6.65625 C 11.8125 -6.144531 12.453125 -5.75 13.203125 -5.46875 C 13.953125 -5.1875 14.800781 -5.046875 15.75 -5.046875 Z M 15.75 -5.046875 "/></g></g></g><g fill="#38b6ff" fill-opacity="1"><g transform="translate(114.18422, 276.133751)"><g><path d="M 4.78125 -17.5 L 10.5 -17.5 L 10.125 -15.3125 L 10.390625 -15.3125 C 10.796875 -15.800781 11.257812 -16.25 11.78125 -16.65625 C 12.226562 -16.988281 12.765625 -17.296875 13.390625 -17.578125 C 14.015625 -17.859375 14.734375 -18 15.546875 -18 C 16.710938 -18 17.703125 -17.800781 18.515625 -17.40625 C 19.335938 -17.007812 19.988281 -16.457031 20.46875 -15.75 C 20.945312 -15.050781 21.257812 -14.222656 21.40625 -13.265625 C 21.550781 -12.316406 21.523438 -11.289062 21.328125 -10.1875 L 19.515625 0 L 13.796875 0 L 15.546875 -9.859375 C 15.703125 -10.847656 15.5625 -11.675781 15.125 -12.34375 C 14.6875 -13.019531 13.90625 -13.359375 12.78125 -13.359375 C 11.925781 -13.359375 11.140625 -13.03125 10.421875 -12.375 C 9.710938 -11.726562 9.265625 -10.851562 9.078125 -9.75 L 7.40625 0 L 1.6875 0 Z M 4.78125 -17.5 "/></g></g></g><g fill="#38b6ff" fill-opacity="1"><g transform="translate(135.212062, 276.133751)"><g><path d="M 5.8125 -23.546875 L 11.53125 -23.546875 L 8.203125 -4.546875 L 12.078125 -4.546875 L 11.265625 0 L 1.6875 0 Z M 5.8125 -23.546875 "/></g></g></g><g fill="#38b6ff" fill-opacity="1"><g transform="translate(146.819437, 276.133751)"><g><path d="M 4.78125 -17.5 L 10.5 -17.5 L 7.40625 0 L 1.6875 0 Z M 8.34375 -19.34375 C 7.40625 -19.34375 6.679688 -19.578125 6.171875 -20.046875 C 5.671875 -20.515625 5.421875 -21.117188 5.421875 -21.859375 C 5.421875 -22.804688 5.71875 -23.578125 6.3125 -24.171875 C 6.90625 -24.765625 7.660156 -25.0625 8.578125 -25.0625 C 9.515625 -25.0625 10.234375 -24.828125 10.734375 -24.359375 C 11.242188 -23.890625 11.5 -23.285156 11.5 -22.546875 C 11.5 -21.597656 11.203125 -20.828125 10.609375 -20.234375 C 10.015625 -19.640625 9.257812 -19.34375 8.34375 -19.34375 Z M 8.34375 -19.34375 "/></g></g></g><g fill="#38b6ff" fill-opacity="1"><g transform="translate(155.903471, 276.133751)"><g><path d="M 4.78125 -17.5 L 10.5 -17.5 L 10.125 -15.3125 L 10.390625 -15.3125 C 10.796875 -15.800781 11.257812 -16.25 11.78125 -16.65625 C 12.226562 -16.988281 12.765625 -17.296875 13.390625 -17.578125 C 14.015625 -17.859375 14.734375 -18 15.546875 -18 C 16.710938 -18 17.703125 -17.800781 18.515625 -17.40625 C 19.335938 -17.007812 19.988281 -16.457031 20.46875 -15.75 C 20.945312 -15.050781 21.257812 -14.222656 21.40625 -13.265625 C 21.550781 -12.316406 21.523438 -11.289062 21.328125 -10.1875 L 19.515625 0 L 13.796875 0 L 15.546875 -9.859375 C 15.703125 -10.847656 15.5625 -11.675781 15.125 -12.34375 C 14.6875 -13.019531 13.90625 -13.359375 12.78125 -13.359375 C 11.925781 -13.359375 11.140625 -13.03125 10.421875 -12.375 C 9.710938 -11.726562 9.265625 -10.851562 9.078125 -9.75 L 7.40625 0 L 1.6875 0 Z M 4.78125 -17.5 "/></g></g></g><g fill="#38b6ff" fill-opacity="1"><g transform="translate(176.931313, 276.133751)"><g><path d="M 11.5 0.5 C 10.175781 0.5 8.953125 0.296875 7.828125 -0.109375 C 6.710938 -0.523438 5.75 -1.113281 4.9375 -1.875 C 4.132812 -2.644531 3.503906 -3.546875 3.046875 -4.578125 C 2.585938 -5.609375 2.359375 -6.75 2.359375 -8 C 2.359375 -9.375 2.632812 -10.664062 3.1875 -11.875 C 3.75 -13.082031 4.5 -14.140625 5.4375 -15.046875 C 6.382812 -15.960938 7.476562 -16.679688 8.71875 -17.203125 C 9.96875 -17.734375 11.289062 -18 12.6875 -18 C 14.03125 -18 15.25 -17.773438 16.34375 -17.328125 C 17.445312 -16.878906 18.382812 -16.265625 19.15625 -15.484375 C 19.925781 -14.710938 20.519531 -13.8125 20.9375 -12.78125 C 21.351562 -11.75 21.5625 -10.660156 21.5625 -9.515625 C 21.5625 -9.273438 21.546875 -9 21.515625 -8.6875 C 21.484375 -8.382812 21.441406 -8.066406 21.390625 -7.734375 L 8.109375 -7.734375 C 8.148438 -6.546875 8.46875 -5.628906 9.0625 -4.984375 C 9.65625 -4.347656 10.503906 -4.03125 11.609375 -4.03125 C 12.210938 -4.03125 12.722656 -4.117188 13.140625 -4.296875 C 13.554688 -4.484375 13.894531 -4.695312 14.15625 -4.9375 C 14.476562 -5.207031 14.738281 -5.523438 14.9375 -5.890625 L 21.09375 -5.890625 C 20.601562 -4.679688 19.921875 -3.613281 19.046875 -2.6875 C 18.660156 -2.28125 18.222656 -1.882812 17.734375 -1.5 C 17.253906 -1.125 16.707031 -0.785156 16.09375 -0.484375 C 15.476562 -0.179688 14.789062 0.0546875 14.03125 0.234375 C 13.269531 0.410156 12.425781 0.5 11.5 0.5 Z M 15.75 -10.59375 C 15.71875 -10.957031 15.617188 -11.3125 15.453125 -11.65625 C 15.285156 -12 15.0625 -12.304688 14.78125 -12.578125 C 14.5 -12.847656 14.171875 -13.0625 13.796875 -13.21875 C 13.429688 -13.375 13.035156 -13.453125 12.609375 -13.453125 C 11.671875 -13.453125 10.859375 -13.210938 10.171875 -12.734375 C 9.492188 -12.253906 8.984375 -11.539062 8.640625 -10.59375 Z M 15.75 -10.59375 "/></g></g></g><g fill="#242424" fill-opacity="1"><g transform="translate(132.38393, 298.067325)"><g><path d="M 0.8125 -7.0625 L 5.75 -7.0625 L 5.75 -6.203125 L 1.71875 -6.203125 L 1.71875 -3.984375 L 5 -3.984375 L 5 -3.125 L 1.71875 -3.125 L 1.71875 -0.859375 L 5.75 -0.859375 L 5.75 0 L 0.8125 0 Z M 0.8125 -7.0625 "/></g></g></g><g fill="#242424" fill-opacity="1"><g transform="translate(141.055268, 298.067325)"><g><path d="M 2.015625 -7.0625 L 4.796875 -7.0625 L 6.609375 0 L 5.703125 0 L 5.140625 -2.0625 L 1.671875 -2.0625 L 1.109375 0 L 0.203125 0 Z M 4.953125 -2.921875 L 4.09375 -6.203125 L 2.71875 -6.203125 L 1.875 -2.921875 Z M 4.953125 -2.921875 "/></g></g></g><g fill="#242424" fill-opacity="1"><g transform="translate(150.381677, 298.067325)"><g><path d="M 3.328125 0.203125 C 3.003906 0.203125 2.710938 0.171875 2.453125 0.109375 C 2.203125 0.046875 1.976562 -0.0351562 1.78125 -0.140625 C 1.59375 -0.242188 1.421875 -0.363281 1.265625 -0.5 C 1.117188 -0.632812 0.992188 -0.769531 0.890625 -0.90625 C 0.648438 -1.226562 0.488281 -1.597656 0.40625 -2.015625 L 1.3125 -2.015625 C 1.375 -1.765625 1.492188 -1.535156 1.671875 -1.328125 C 1.816406 -1.148438 2.019531 -0.992188 2.28125 -0.859375 C 2.550781 -0.722656 2.898438 -0.65625 3.328125 -0.65625 C 3.628906 -0.65625 3.890625 -0.6875 4.109375 -0.75 C 4.335938 -0.8125 4.523438 -0.898438 4.671875 -1.015625 C 4.816406 -1.128906 4.921875 -1.257812 4.984375 -1.40625 C 5.054688 -1.550781 5.09375 -1.707031 5.09375 -1.875 C 5.09375 -2.082031 5.03125 -2.253906 4.90625 -2.390625 C 4.78125 -2.535156 4.613281 -2.660156 4.40625 -2.765625 C 4.195312 -2.867188 3.960938 -2.957031 3.703125 -3.03125 C 3.441406 -3.101562 3.175781 -3.175781 2.90625 -3.25 C 2.632812 -3.332031 2.363281 -3.421875 2.09375 -3.515625 C 1.832031 -3.617188 1.597656 -3.742188 1.390625 -3.890625 C 1.179688 -4.046875 1.015625 -4.234375 0.890625 -4.453125 C 0.765625 -4.671875 0.703125 -4.9375 0.703125 -5.25 C 0.703125 -5.507812 0.757812 -5.757812 0.875 -6 C 1 -6.25 1.164062 -6.46875 1.375 -6.65625 C 1.59375 -6.84375 1.859375 -6.988281 2.171875 -7.09375 C 2.484375 -7.207031 2.835938 -7.265625 3.234375 -7.265625 C 3.523438 -7.265625 3.789062 -7.234375 4.03125 -7.171875 C 4.269531 -7.117188 4.476562 -7.046875 4.65625 -6.953125 C 4.84375 -6.867188 5.003906 -6.765625 5.140625 -6.640625 C 5.273438 -6.515625 5.390625 -6.394531 5.484375 -6.28125 C 5.710938 -5.988281 5.867188 -5.660156 5.953125 -5.296875 L 5.046875 -5.296875 C 4.984375 -5.503906 4.875 -5.691406 4.71875 -5.859375 C 4.582031 -5.992188 4.394531 -6.117188 4.15625 -6.234375 C 3.925781 -6.347656 3.617188 -6.40625 3.234375 -6.40625 C 2.972656 -6.40625 2.738281 -6.375 2.53125 -6.3125 C 2.332031 -6.25 2.160156 -6.160156 2.015625 -6.046875 C 1.878906 -5.941406 1.773438 -5.816406 1.703125 -5.671875 C 1.640625 -5.535156 1.609375 -5.394531 1.609375 -5.25 C 1.609375 -4.96875 1.71875 -4.75 1.9375 -4.59375 C 2.15625 -4.4375 2.425781 -4.300781 2.75 -4.1875 C 3.070312 -4.082031 3.421875 -3.976562 3.796875 -3.875 C 4.179688 -3.78125 4.535156 -3.65625 4.859375 -3.5 C 5.191406 -3.34375 5.460938 -3.132812 5.671875 -2.875 C 5.890625 -2.625 6 -2.289062 6 -1.875 C 6 -1.59375 5.941406 -1.328125 5.828125 -1.078125 C 5.710938 -0.828125 5.539062 -0.601562 5.3125 -0.40625 C 5.082031 -0.21875 4.800781 -0.0703125 4.46875 0.03125 C 4.144531 0.144531 3.765625 0.203125 3.328125 0.203125 Z M 3.328125 0.203125 "/></g></g></g><g fill="#242424" fill-opacity="1"><g transform="translate(159.355358, 298.067325)"><g><path d="M 2.78125 -2.578125 L 0.046875 -7.0625 L 1.109375 -7.0625 L 3.171875 -3.640625 L 3.28125 -3.640625 L 5.34375 -7.0625 L 6.40625 -7.0625 L 3.6875 -2.578125 L 3.6875 0 L 2.78125 0 Z M 2.78125 -2.578125 "/></g></g></g><g fill="#242424" fill-opacity="1"><g transform="translate(168.329036, 298.067325)"><g/></g></g><g fill="#242424" fill-opacity="1"><g transform="translate(173.674583, 298.067325)"><g><path d="M 3.328125 0.203125 C 3.003906 0.203125 2.710938 0.171875 2.453125 0.109375 C 2.203125 0.046875 1.976562 -0.0351562 1.78125 -0.140625 C 1.59375 -0.242188 1.421875 -0.363281 1.265625 -0.5 C 1.117188 -0.632812 0.992188 -0.769531 0.890625 -0.90625 C 0.648438 -1.226562 0.488281 -1.597656 0.40625 -2.015625 L 1.3125 -2.015625 C 1.375 -1.765625 1.492188 -1.535156 1.671875 -1.328125 C 1.816406 -1.148438 2.019531 -0.992188 2.28125 -0.859375 C 2.550781 -0.722656 2.898438 -0.65625 3.328125 -0.65625 C 3.628906 -0.65625 3.890625 -0.6875 4.109375 -0.75 C 4.335938 -0.8125 4.523438 -0.898438 4.671875 -1.015625 C 4.816406 -1.128906 4.921875 -1.257812 4.984375 -1.40625 C 5.054688 -1.550781 5.09375 -1.707031 5.09375 -1.875 C 5.09375 -2.082031 5.03125 -2.253906 4.90625 -2.390625 C 4.78125 -2.535156 4.613281 -2.660156 4.40625 -2.765625 C 4.195312 -2.867188 3.960938 -2.957031 3.703125 -3.03125 C 3.441406 -3.101562 3.175781 -3.175781 2.90625 -3.25 C 2.632812 -3.332031 2.363281 -3.421875 2.09375 -3.515625 C 1.832031 -3.617188 1.597656 -3.742188 1.390625 -3.890625 C 1.179688 -4.046875 1.015625 -4.234375 0.890625 -4.453125 C 0.765625 -4.671875 0.703125 -4.9375 0.703125 -5.25 C 0.703125 -5.507812 0.757812 -5.757812 0.875 -6 C 1 -6.25 1.164062 -6.46875 1.375 -6.65625 C 1.59375 -6.84375 1.859375 -6.988281 2.171875 -7.09375 C 2.484375 -7.207031 2.835938 -7.265625 3.234375 -7.265625 C 3.523438 -7.265625 3.789062 -7.234375 4.03125 -7.171875 C 4.269531 -7.117188 4.476562 -7.046875 4.65625 -6.953125 C 4.84375 -6.867188 5.003906 -6.765625 5.140625 -6.640625 C 5.273438 -6.515625 5.390625 -6.394531 5.484375 -6.28125 C 5.710938 -5.988281 5.867188 -5.660156 5.953125 -5.296875 L 5.046875 -5.296875 C 4.984375 -5.503906 4.875 -5.691406 4.71875 -5.859375 C 4.582031 -5.992188 4.394531 -6.117188 4.15625 -6.234375 C 3.925781 -6.347656 3.617188 -6.40625 3.234375 -6.40625 C 2.972656 -6.40625 2.738281 -6.375 2.53125 -6.3125 C 2.332031 -6.25 2.160156 -6.160156 2.015625 -6.046875 C 1.878906 -5.941406 1.773438 -5.816406 1.703125 -5.671875 C 1.640625 -5.535156 1.609375 -5.394531 1.609375 -5.25 C 1.609375 -4.96875 1.71875 -4.75 1.9375 -4.59375 C 2.15625 -4.4375 2.425781 -4.300781 2.75 -4.1875 C 3.070312 -4.082031 3.421875 -3.976562 3.796875 -3.875 C 4.179688 -3.78125 4.535156 -3.65625 4.859375 -3.5 C 5.191406 -3.34375 5.460938 -3.132812 5.671875 -2.875 C 5.890625 -2.625 6 -2.289062 6 -1.875 C 6 -1.59375 5.941406 -1.328125 5.828125 -1.078125 C 5.710938 -0.828125 5.539062 -0.601562 5.3125 -0.40625 C 5.082031 -0.21875 4.800781 -0.0703125 4.46875 0.03125 C 4.144531 0.144531 3.765625 0.203125 3.328125 0.203125 Z M 3.328125 0.203125 "/></g></g></g><g fill="#242424" fill-opacity="1"><g transform="translate(182.648261, 298.067325)"><g><path d="M 4.140625 0.203125 C 3.609375 0.203125 3.113281 0.109375 2.65625 -0.078125 C 2.207031 -0.265625 1.820312 -0.523438 1.5 -0.859375 C 1.175781 -1.191406 0.921875 -1.582031 0.734375 -2.03125 C 0.546875 -2.488281 0.453125 -2.988281 0.453125 -3.53125 C 0.453125 -4.070312 0.546875 -4.570312 0.734375 -5.03125 C 0.921875 -5.488281 1.175781 -5.882812 1.5 -6.21875 C 1.820312 -6.550781 2.207031 -6.804688 2.65625 -6.984375 C 3.113281 -7.171875 3.609375 -7.265625 4.140625 -7.265625 C 4.671875 -7.265625 5.160156 -7.171875 5.609375 -6.984375 C 6.054688 -6.804688 6.441406 -6.550781 6.765625 -6.21875 C 7.097656 -5.882812 7.359375 -5.488281 7.546875 -5.03125 C 7.734375 -4.570312 7.828125 -4.070312 7.828125 -3.53125 C 7.828125 -2.988281 7.734375 -2.488281 7.546875 -2.03125 C 7.359375 -1.582031 7.097656 -1.191406 6.765625 -0.859375 C 6.441406 -0.523438 6.054688 -0.265625 5.609375 -0.078125 C 5.160156 0.109375 4.671875 0.203125 4.140625 0.203125 Z M 4.140625 -0.65625 C 4.546875 -0.65625 4.914062 -0.722656 5.25 -0.859375 C 5.59375 -0.992188 5.882812 -1.1875 6.125 -1.4375 C 6.375 -1.695312 6.566406 -2.003906 6.703125 -2.359375 C 6.847656 -2.710938 6.921875 -3.101562 6.921875 -3.53125 C 6.921875 -3.957031 6.847656 -4.347656 6.703125 -4.703125 C 6.566406 -5.054688 6.375 -5.359375 6.125 -5.609375 C 5.882812 -5.867188 5.59375 -6.066406 5.25 -6.203125 C 4.914062 -6.335938 4.546875 -6.40625 4.140625 -6.40625 C 3.734375 -6.40625 3.359375 -6.335938 3.015625 -6.203125 C 2.679688 -6.066406 2.390625 -5.867188 2.140625 -5.609375 C 1.898438 -5.359375 1.707031 -5.054688 1.5625 -4.703125 C 1.425781 -4.347656 1.359375 -3.957031 1.359375 -3.53125 C 1.359375 -3.101562 1.425781 -2.710938 1.5625 -2.359375 C 1.707031 -2.003906 1.898438 -1.695312 2.140625 -1.4375 C 2.390625 -1.1875 2.679688 -0.992188 3.015625 -0.859375 C 3.359375 -0.722656 3.734375 -0.65625 4.140625 -0.65625 Z M 4.140625 -0.65625 "/></g></g></g><g fill="#242424" fill-opacity="1"><g transform="translate(193.435999, 298.067325)"><g><path d="M 0.8125 -7.0625 L 1.71875 -7.0625 L 1.71875 -0.859375 L 5.40625 -0.859375 L 5.40625 0 L 0.8125 0 Z M 0.8125 -7.0625 "/></g></g></g><g fill="#242424" fill-opacity="1"><g transform="translate(201.401864, 298.067325)"><g><path d="M 3.53125 0.203125 C 3.113281 0.203125 2.734375 0.132812 2.390625 0 C 2.054688 -0.132812 1.765625 -0.328125 1.515625 -0.578125 C 1.273438 -0.828125 1.085938 -1.128906 0.953125 -1.484375 C 0.816406 -1.835938 0.75 -2.234375 0.75 -2.671875 L 0.75 -7.0625 L 1.671875 -7.0625 L 1.671875 -2.671875 C 1.671875 -2.359375 1.710938 -2.078125 1.796875 -1.828125 C 1.890625 -1.578125 2.019531 -1.363281 2.1875 -1.1875 C 2.351562 -1.007812 2.550781 -0.875 2.78125 -0.78125 C 3.007812 -0.695312 3.257812 -0.65625 3.53125 -0.65625 C 3.8125 -0.65625 4.066406 -0.695312 4.296875 -0.78125 C 4.523438 -0.875 4.71875 -1.007812 4.875 -1.1875 C 5.039062 -1.363281 5.171875 -1.578125 5.265625 -1.828125 C 5.359375 -2.078125 5.40625 -2.359375 5.40625 -2.671875 L 5.40625 -7.0625 L 6.3125 -7.0625 L 6.3125 -2.671875 C 6.3125 -2.234375 6.242188 -1.835938 6.109375 -1.484375 C 5.972656 -1.128906 5.78125 -0.828125 5.53125 -0.578125 C 5.289062 -0.328125 5 -0.132812 4.65625 0 C 4.320312 0.132812 3.945312 0.203125 3.53125 0.203125 Z M 3.53125 0.203125 "/></g></g></g><g fill="#242424" fill-opacity="1"><g transform="translate(210.980225, 298.067325)"><g><path d="M 2.515625 -6.203125 L 0.09375 -6.203125 L 0.09375 -7.0625 L 5.859375 -7.0625 L 5.859375 -6.203125 L 3.4375 -6.203125 L 3.4375 0 L 2.515625 0 Z M 2.515625 -6.203125 "/></g></g></g><g fill="#242424" fill-opacity="1"><g transform="translate(219.449997, 298.067325)"><g><path d="M 0.8125 -7.0625 L 1.71875 -7.0625 L 1.71875 0 L 0.8125 0 Z M 0.8125 -7.0625 "/></g></g></g><g fill="#242424" fill-opacity="1"><g transform="translate(224.493202, 298.067325)"><g><path d="M 4.140625 0.203125 C 3.609375 0.203125 3.113281 0.109375 2.65625 -0.078125 C 2.207031 -0.265625 1.820312 -0.523438 1.5 -0.859375 C 1.175781 -1.191406 0.921875 -1.582031 0.734375 -2.03125 C 0.546875 -2.488281 0.453125 -2.988281 0.453125 -3.53125 C 0.453125 -4.070312 0.546875 -4.570312 0.734375 -5.03125 C 0.921875 -5.488281 1.175781 -5.882812 1.5 -6.21875 C 1.820312 -6.550781 2.207031 -6.804688 2.65625 -6.984375 C 3.113281 -7.171875 3.609375 -7.265625 4.140625 -7.265625 C 4.671875 -7.265625 5.160156 -7.171875 5.609375 -6.984375 C 6.054688 -6.804688 6.441406 -6.550781 6.765625 -6.21875 C 7.097656 -5.882812 7.359375 -5.488281 7.546875 -5.03125 C 7.734375 -4.570312 7.828125 -4.070312 7.828125 -3.53125 C 7.828125 -2.988281 7.734375 -2.488281 7.546875 -2.03125 C 7.359375 -1.582031 7.097656 -1.191406 6.765625 -0.859375 C 6.441406 -0.523438 6.054688 -0.265625 5.609375 -0.078125 C 5.160156 0.109375 4.671875 0.203125 4.140625 0.203125 Z M 4.140625 -0.65625 C 4.546875 -0.65625 4.914062 -0.722656 5.25 -0.859375 C 5.59375 -0.992188 5.882812 -1.1875 6.125 -1.4375 C 6.375 -1.695312 6.566406 -2.003906 6.703125 -2.359375 C 6.847656 -2.710938 6.921875 -3.101562 6.921875 -3.53125 C 6.921875 -3.957031 6.847656 -4.347656 6.703125 -4.703125 C 6.566406 -5.054688 6.375 -5.359375 6.125 -5.609375 C 5.882812 -5.867188 5.59375 -6.066406 5.25 -6.203125 C 4.914062 -6.335938 4.546875 -6.40625 4.140625 -6.40625 C 3.734375 -6.40625 3.359375 -6.335938 3.015625 -6.203125 C 2.679688 -6.066406 2.390625 -5.867188 2.140625 -5.609375 C 1.898438 -5.359375 1.707031 -5.054688 1.5625 -4.703125 C 1.425781 -4.347656 1.359375 -3.957031 1.359375 -3.53125 C 1.359375 -3.101562 1.425781 -2.710938 1.5625 -2.359375 C 1.707031 -2.003906 1.898438 -1.695312 2.140625 -1.4375 C 2.390625 -1.1875 2.679688 -0.992188 3.015625 -0.859375 C 3.359375 -0.722656 3.734375 -0.65625 4.140625 -0.65625 Z M 4.140625 -0.65625 "/></g></g></g><g fill="#242424" fill-opacity="1"><g transform="translate(235.280946, 298.067325)"><g><path d="M 0.8125 -7.0625 L 2.125 -7.0625 L 5.59375 -1.109375 L 5.609375 -1.109375 L 5.609375 -7.0625 L 6.515625 -7.0625 L 6.515625 0 L 5.203125 0 L 1.71875 -5.953125 L 1.703125 -5.953125 L 1.71875 -5.859375 L 1.71875 -0.015625 L 0.8125 0 Z M 0.8125 -7.0625 "/></g></g></g><g fill="#000000" fill-opacity="1"><g transform="translate(194.76232, 276.133751)"><g/></g></g><g fill="#000000" fill-opacity="1"><g transform="translate(204.184194, 276.133751)"><g><path d="M 11.09375 0.671875 C 10.019531 0.671875 9.054688 0.5625 8.203125 0.34375 C 7.359375 0.132812 6.609375 -0.140625 5.953125 -0.484375 C 5.304688 -0.835938 4.734375 -1.234375 4.234375 -1.671875 C 3.742188 -2.109375 3.332031 -2.5625 3 -3.03125 C 2.1875 -4.101562 1.632812 -5.335938 1.34375 -6.734375 L 4.375 -6.734375 C 4.59375 -5.878906 4.992188 -5.113281 5.578125 -4.4375 C 6.078125 -3.851562 6.765625 -3.332031 7.640625 -2.875 C 8.515625 -2.414062 9.664062 -2.1875 11.09375 -2.1875 C 12.101562 -2.1875 12.976562 -2.289062 13.71875 -2.5 C 14.457031 -2.71875 15.066406 -3.007812 15.546875 -3.375 C 16.035156 -3.75 16.394531 -4.179688 16.625 -4.671875 C 16.863281 -5.171875 16.984375 -5.6875 16.984375 -6.21875 C 16.984375 -6.9375 16.773438 -7.53125 16.359375 -8 C 15.953125 -8.476562 15.398438 -8.882812 14.703125 -9.21875 C 14.003906 -9.550781 13.21875 -9.84375 12.34375 -10.09375 C 11.46875 -10.34375 10.578125 -10.59375 9.671875 -10.84375 C 8.765625 -11.101562 7.875 -11.398438 7 -11.734375 C 6.125 -12.078125 5.335938 -12.492188 4.640625 -12.984375 C 3.941406 -13.472656 3.382812 -14.082031 2.96875 -14.8125 C 2.5625 -15.539062 2.359375 -16.4375 2.359375 -17.5 C 2.359375 -18.375 2.550781 -19.21875 2.9375 -20.03125 C 3.332031 -20.851562 3.890625 -21.570312 4.609375 -22.1875 C 5.328125 -22.800781 6.207031 -23.289062 7.25 -23.65625 C 8.289062 -24.03125 9.460938 -24.21875 10.765625 -24.21875 C 11.753906 -24.21875 12.644531 -24.125 13.4375 -23.9375 C 14.238281 -23.75 14.941406 -23.5 15.546875 -23.1875 C 16.148438 -22.882812 16.679688 -22.53125 17.140625 -22.125 C 17.597656 -21.726562 17.984375 -21.328125 18.296875 -20.921875 C 19.035156 -19.960938 19.550781 -18.875 19.84375 -17.65625 L 16.8125 -17.65625 C 16.613281 -18.332031 16.257812 -18.953125 15.75 -19.515625 C 15.300781 -19.960938 14.679688 -20.378906 13.890625 -20.765625 C 13.109375 -21.160156 12.066406 -21.359375 10.765625 -21.359375 C 9.890625 -21.359375 9.113281 -21.25 8.4375 -21.03125 C 7.769531 -20.820312 7.207031 -20.535156 6.75 -20.171875 C 6.289062 -19.816406 5.945312 -19.40625 5.71875 -18.9375 C 5.488281 -18.46875 5.375 -17.988281 5.375 -17.5 C 5.375 -16.570312 5.734375 -15.84375 6.453125 -15.3125 C 7.171875 -14.789062 8.070312 -14.34375 9.15625 -13.96875 C 10.25 -13.601562 11.425781 -13.257812 12.6875 -12.9375 C 13.957031 -12.613281 15.132812 -12.1875 16.21875 -11.65625 C 17.3125 -11.125 18.21875 -10.429688 18.9375 -9.578125 C 19.65625 -8.734375 20.015625 -7.613281 20.015625 -6.21875 C 20.015625 -5.300781 19.816406 -4.421875 19.421875 -3.578125 C 19.035156 -2.742188 18.457031 -2.007812 17.6875 -1.375 C 16.925781 -0.75 15.992188 -0.253906 14.890625 0.109375 C 13.796875 0.484375 12.53125 0.671875 11.09375 0.671875 Z M 11.09375 0.671875 "/></g></g></g><g fill="#000000" fill-opacity="1"><g transform="translate(225.716709, 276.133751)"><g><path d="M 2.359375 -23.546875 L 5.046875 -23.546875 L 5.046875 -14.296875 L 5.078125 -14.296875 C 5.410156 -14.835938 5.847656 -15.304688 6.390625 -15.703125 C 6.835938 -16.066406 7.425781 -16.398438 8.15625 -16.703125 C 8.882812 -17.003906 9.753906 -17.15625 10.765625 -17.15625 C 11.773438 -17.15625 12.691406 -16.992188 13.515625 -16.671875 C 14.347656 -16.347656 15.054688 -15.867188 15.640625 -15.234375 C 16.222656 -14.609375 16.675781 -13.851562 17 -12.96875 C 17.332031 -12.082031 17.5 -11.066406 17.5 -9.921875 L 17.5 0 L 14.796875 0 L 14.796875 -9.75 C 14.796875 -11.4375 14.375 -12.671875 13.53125 -13.453125 C 12.695312 -14.242188 11.609375 -14.640625 10.265625 -14.640625 C 9.492188 -14.640625 8.789062 -14.507812 8.15625 -14.25 C 7.519531 -13.988281 6.96875 -13.609375 6.5 -13.109375 C 6.039062 -12.617188 5.679688 -12.03125 5.421875 -11.34375 C 5.171875 -10.664062 5.046875 -9.910156 5.046875 -9.078125 L 5.046875 0 L 2.359375 0 Z M 2.359375 -23.546875 "/></g></g></g><g fill="#000000" fill-opacity="1"><g transform="translate(245.230555, 276.133751)"><g><path d="M 10.09375 0.34375 C 8.832031 0.34375 7.664062 0.125 6.59375 -0.3125 C 5.519531 -0.75 4.59375 -1.351562 3.8125 -2.125 C 3.039062 -2.90625 2.4375 -3.832031 2 -4.90625 C 1.5625 -5.988281 1.34375 -7.15625 1.34375 -8.40625 C 1.34375 -9.664062 1.5625 -10.832031 2 -11.90625 C 2.4375 -12.988281 3.039062 -13.914062 3.8125 -14.6875 C 4.59375 -15.457031 5.519531 -16.0625 6.59375 -16.5 C 7.664062 -16.9375 8.832031 -17.15625 10.09375 -17.15625 C 11.34375 -17.15625 12.503906 -16.9375 13.578125 -16.5 C 14.660156 -16.0625 15.585938 -15.457031 16.359375 -14.6875 C 17.140625 -13.914062 17.75 -12.988281 18.1875 -11.90625 C 18.625 -10.832031 18.84375 -9.664062 18.84375 -8.40625 C 18.84375 -7.15625 18.625 -5.988281 18.1875 -4.90625 C 17.75 -3.832031 17.140625 -2.90625 16.359375 -2.125 C 15.585938 -1.351562 14.660156 -0.75 13.578125 -0.3125 C 12.503906 0.125 11.34375 0.34375 10.09375 0.34375 Z M 10.09375 -2.1875 C 10.96875 -2.1875 11.773438 -2.335938 12.515625 -2.640625 C 13.253906 -2.941406 13.890625 -3.367188 14.421875 -3.921875 C 14.960938 -4.472656 15.382812 -5.128906 15.6875 -5.890625 C 15.988281 -6.648438 16.140625 -7.488281 16.140625 -8.40625 C 16.140625 -9.332031 15.988281 -10.175781 15.6875 -10.9375 C 15.382812 -11.695312 14.960938 -12.347656 14.421875 -12.890625 C 13.890625 -13.441406 13.253906 -13.867188 12.515625 -14.171875 C 11.773438 -14.484375 10.96875 -14.640625 10.09375 -14.640625 C 9.21875 -14.640625 8.410156 -14.484375 7.671875 -14.171875 C 6.929688 -13.867188 6.289062 -13.441406 5.75 -12.890625 C 5.207031 -12.347656 4.785156 -11.695312 4.484375 -10.9375 C 4.179688 -10.175781 4.03125 -9.332031 4.03125 -8.40625 C 4.03125 -7.488281 4.179688 -6.648438 4.484375 -5.890625 C 4.785156 -5.128906 5.207031 -4.472656 5.75 -3.921875 C 6.289062 -3.367188 6.929688 -2.941406 7.671875 -2.640625 C 8.410156 -2.335938 9.21875 -2.1875 10.09375 -2.1875 Z M 10.09375 -2.1875 "/></g></g></g><g fill="#000000" fill-opacity="1"><g transform="translate(265.417291, 276.133751)"><g><path d="M 2.359375 -16.8125 L 5.046875 -16.8125 L 5.046875 -14.125 L 5.078125 -14.125 C 5.078125 -14.125 5.179688 -14.285156 5.390625 -14.609375 C 5.609375 -14.941406 5.957031 -15.289062 6.4375 -15.65625 C 6.925781 -16.03125 7.550781 -16.375 8.3125 -16.6875 C 9.070312 -17 10 -17.15625 11.09375 -17.15625 C 12.195312 -17.15625 13.234375 -16.9375 14.203125 -16.5 C 15.179688 -16.0625 16.039062 -15.457031 16.78125 -14.6875 C 17.519531 -13.914062 18.101562 -12.988281 18.53125 -11.90625 C 18.957031 -10.832031 19.171875 -9.664062 19.171875 -8.40625 C 19.171875 -7.15625 18.957031 -5.988281 18.53125 -4.90625 C 18.101562 -3.832031 17.519531 -2.90625 16.78125 -2.125 C 16.039062 -1.351562 15.179688 -0.75 14.203125 -0.3125 C 13.234375 0.125 12.195312 0.34375 11.09375 0.34375 C 10 0.34375 9.070312 0.1875 8.3125 -0.125 C 7.550781 -0.445312 6.925781 -0.789062 6.4375 -1.15625 C 5.957031 -1.53125 5.609375 -1.878906 5.390625 -2.203125 C 5.179688 -2.523438 5.078125 -2.6875 5.078125 -2.6875 L 5.046875 -2.6875 L 5.046875 6.390625 L 2.359375 6.390625 Z M 10.765625 -2.1875 C 11.566406 -2.1875 12.316406 -2.335938 13.015625 -2.640625 C 13.710938 -2.941406 14.316406 -3.367188 14.828125 -3.921875 C 15.347656 -4.472656 15.753906 -5.128906 16.046875 -5.890625 C 16.335938 -6.648438 16.484375 -7.488281 16.484375 -8.40625 C 16.484375 -9.332031 16.335938 -10.175781 16.046875 -10.9375 C 15.753906 -11.695312 15.347656 -12.347656 14.828125 -12.890625 C 14.316406 -13.441406 13.710938 -13.867188 13.015625 -14.171875 C 12.316406 -14.484375 11.566406 -14.640625 10.765625 -14.640625 C 9.953125 -14.640625 9.195312 -14.484375 8.5 -14.171875 C 7.8125 -13.867188 7.207031 -13.441406 6.6875 -12.890625 C 6.175781 -12.347656 5.773438 -11.695312 5.484375 -10.9375 C 5.191406 -10.175781 5.046875 -9.332031 5.046875 -8.40625 C 5.046875 -7.488281 5.191406 -6.648438 5.484375 -5.890625 C 5.773438 -5.128906 6.175781 -4.472656 6.6875 -3.921875 C 7.207031 -3.367188 7.8125 -2.941406 8.5 -2.640625 C 9.195312 -2.335938 9.953125 -2.1875 10.765625 -2.1875 Z M 10.765625 -2.1875 "/></g></g></g></svg>